<svg xmlns="http://www.w3.org/2000/svg" xmlns:xlink="http://www.w3.org/1999/xlink" version="1.1" x="0px" y="0px" viewBox="0 0 100 125" enable-background="new 0 0 100 100" xml:space="preserve" fill="#fff"><path d="M70.475,52.796c0.116,0.998,0.188,2.008,0.188,3.03c0,14.657-11.922,26.578-26.571,26.578  c-14.654,0-26.575-11.921-26.575-26.578c0-14.647,11.925-26.565,26.575-26.565c1.104,0,2.189,0.088,3.256,0.221l10.534-10.535  c-4.301-1.612-8.935-2.535-13.79-2.535c-21.738,0-39.425,17.682-39.422,39.415c-0.003,21.74,17.682,39.428,39.422,39.428  c21.733,0,39.421-17.688,39.417-39.428c0.004-4.78-0.896-9.352-2.466-13.599L70.475,52.796z"/><polygon points="94.329,5.746 51.294,5.746 68.26,22.704 44.699,46.265 53.785,55.35 77.345,31.79 94.326,48.812 "/></svg>
