<svg xmlns="http://www.w3.org/2000/svg" xmlns:xlink="http://www.w3.org/1999/xlink" version="1.1" x="0px" y="0px" viewBox="0 0 100 125" style="enable-background:new 0 0 100 100;" xml:space="preserve" fill="fff"><g><path d="M50,86c19.9,0,36-16.1,36-36S69.9,14,50,14S14,30.1,14,50S30.1,86,50,86z M50,20c16.5,0,30,13.5,30,30S66.5,80,50,80   S20,66.5,20,50S33.5,20,50,20z"/><path d="M40,65.7c0.3,0.2,0.7,0.3,1,0.3c0.3,0,0.7-0.1,1-0.3l24-14c0.6-0.4,1-1,1-1.7s-0.4-1.4-1-1.7l-24-14c-0.6-0.4-1.4-0.4-2,0   c-0.6,0.4-1,1-1,1.7v28C39,64.7,39.4,65.4,40,65.7z"/></g></svg>
